<svg width="33" height="34" viewBox="0 0 33 34" fill="none" xmlns="http://www.w3.org/2000/svg">
<path d="M32.2604 2.5V31.5C32.2604 32.163 32.0107 32.7989 31.5663 33.2678C31.1219 33.7366 30.5191 34 29.8906 34H2.40104C1.77253 34 1.16977 33.7366 0.725346 33.2678C0.280924 32.7989 0.03125 32.163 0.03125 31.5L0.03125 2.5C0.03125 1.83696 0.280924 1.20107 0.725346 0.732233C1.16977 0.263392 1.77253 0 2.40104 0L29.8906 0C30.5191 0 31.1219 0.263392 31.5663 0.732233C32.0107 1.20107 32.2604 1.83696 32.2604 2.5ZM9.51042 13H4.77083V29H9.51042V13ZM9.93698 7.5C9.93948 7.12179 9.87133 6.74677 9.73644 6.39634C9.60155 6.04591 9.40255 5.72695 9.1508 5.45765C8.89906 5.18836 8.5995 4.97402 8.26923 4.82686C7.93896 4.67971 7.58445 4.60262 7.22594 4.6H7.14062C6.41156 4.6 5.71235 4.90553 5.19682 5.44939C4.68129 5.99325 4.39167 6.73087 4.39167 7.5C4.39167 8.26913 4.68129 9.00675 5.19682 9.55061C5.71235 10.0945 6.41156 10.4 7.14062 10.4C7.49916 10.4093 7.85592 10.344 8.19052 10.2078C8.52512 10.0716 8.831 9.86717 9.09069 9.60622C9.35038 9.34527 9.55878 9.03289 9.70399 8.68694C9.8492 8.34099 9.92837 7.96824 9.93698 7.59V7.5ZM27.5208 19.28C27.5208 14.47 24.6202 12.6 21.7385 12.6C20.795 12.5502 19.8556 12.7622 19.014 13.2149C18.1724 13.6676 17.458 14.3451 16.9421 15.18H16.8094V13H12.3542V29H17.0937V20.49C17.0252 19.6184 17.2855 18.7535 17.8179 18.0832C18.3504 17.4129 19.1121 16.9913 19.9375 16.91H20.1176C21.6248 16.91 22.7433 17.91 22.7433 20.43V29H27.4829L27.5208 19.28Z" fill="white"/>
</svg>
